<?xml version="1.0" standalone="no"?>
<!DOCTYPE svg PUBLIC "-//W3C//DTD SVG 1.1//EN"
  "http://www.w3.org/Graphics/SVG/1.1/DTD/svg11.dtd">
<svg version="1.1" xmlns="http://www.w3.org/2000/svg" xmlns:xlink="http://www.w3.org/1999/xlink" width="1144" height="1414" viewBox="-32 -32 1144 1414" id="ccdiagram"><filter id="grayscale"><feColorMatrix type="matrix" values="0.3333 0.3333 0.3333 0 0 0.3333 0.3333 0.3333 0 0 0.3333 0.3333 0.3333 0 0 0 0 0 1 0"></feColorMatrix></filter><defs><style type="text/css">@import url('https://fonts.googleapis.com/css?family=Open+Sans:400,700|Inconsolata:400');</style></defs><g><rect x="-32" y="-32" width="1144" height="1414" fill="#ffffff" id="interactionLayer"></rect><g pointer-events="auto"><g opacity="1"><g><g><polygon points="45 203, 45 180, 90 135, 540 135, 540 135, 990 135, 1035 180, 1035 720, 990 765, 90 765, 45 720, 45 203" fill="#ffffff" stroke-width="2" stroke="#e6e7e8"></polygon><polygon points="90 203, 90 180, 540 180, 990 180, 990 720, 90 720" fill="#e6e7e8"></polygon></g></g></g></g><g pointer-events="auto"></g><g pointer-events="auto"></g><g></g><g pointer-events="auto"></g><g></g><g pointer-events="auto"></g><g pointer-events="auto"></g><g pointer-events="none"></g><g pointer-events="auto"><g id="d655ee36-61c6-47b3-b615-94aa9747f573-eed66293-bc7b-440c-819a-7215142b4ac9"><g cursor="cell"><line x1="474" y1="900" x2="315" y2="900" stroke="red" stroke-width="8" opacity="0"></line><line x1="474" y1="900" x2="315" y2="900" stroke="#000000" stroke-width="2" stroke-linecap="round"></line><polygon points="488 900, 463 889, 470 900, 463 911, 488 900" stroke-linejoin="round" fill="#000000" stroke="#000000" stroke-width="1"></polygon></g></g><g id="d7836c13-4eff-46f8-8243-48a2552df90b-7eaa13aa-57f4-431b-aa06-a2aaf9c6dcd2"><g cursor="cell"><line x1="765" y1="900" x2="765" y2="644" stroke="red" stroke-width="8" opacity="0"></line><line x1="765" y1="900" x2="765" y2="644" stroke="#000000" stroke-width="2" stroke-linecap="round"></line><polygon points="765 630, 754 654, 765 648, 776 654, 765 630" stroke-linejoin="round" fill="#000000" stroke="#000000" stroke-width="1"></polygon></g></g><g id="4cbb1100-2cad-432e-9986-26eb4e40106a-a99f4cf2-54c1-403b-a7e9-27cdc31703d5"><g cursor="cell"><line x1="540" y1="585" x2="374" y2="585" stroke="red" stroke-width="8" opacity="0"></line><line x1="540" y1="585" x2="374" y2="585" stroke="#000000" stroke-width="2" stroke-linecap="round"></line><polygon points="360 585, 384 596, 378 585, 384 574, 360 585" stroke-linejoin="round" fill="#000000" stroke="#000000" stroke-width="1"></polygon></g></g><g id="d655ee36-61c6-47b3-b615-94aa9747f573-6c6f6ef3-4ceb-4aa1-b55e-038974c8e354"><g cursor="cell"><line x1="540" y1="966" x2="540" y2="1035" stroke="red" stroke-width="8" opacity="0"></line><line x1="540" y1="966" x2="540" y2="1035" stroke="#000000" stroke-width="2" stroke-linecap="round"></line><polygon points="540 952, 529 977, 540 970, 551 977, 540 952" stroke-linejoin="round" fill="#000000" stroke="#000000" stroke-width="1"></polygon></g></g><g id="688e4bab-e850-4866-b052-bb2bd37f773c-13b4d6d9-4dd8-4baa-8589-0826c18bee56"><g cursor="cell"><line x1="599" y1="315" x2="765" y2="315" stroke="red" stroke-width="8" opacity="0"></line><line x1="599" y1="315" x2="765" y2="315" stroke="#000000" stroke-width="2" stroke-linecap="round"></line><polygon points="585 315, 609 326, 603 315, 609 304, 585 315" stroke-linejoin="round" fill="#000000" stroke="#000000" stroke-width="1"></polygon></g></g><g id="eed66293-bc7b-440c-819a-7215142b4ac9-7e9ccfc0-f20a-4dd1-8352-9c9f7c8cfb6f"><g cursor="cell"><line x1="315" y1="900" x2="315" y2="644" stroke="red" stroke-width="8" opacity="0"></line><line x1="315" y1="900" x2="315" y2="644" stroke="#000000" stroke-width="2" stroke-linecap="round"></line><polygon points="315 630, 304 654, 315 648, 326 654, 315 630" stroke-linejoin="round" fill="#000000" stroke="#000000" stroke-width="1"></polygon></g></g><g id="d655ee36-61c6-47b3-b615-94aa9747f573-d7836c13-4eff-46f8-8243-48a2552df90b"><g cursor="cell"><line x1="606" y1="900" x2="765" y2="900" stroke="red" stroke-width="8" opacity="0"></line><line x1="606" y1="900" x2="765" y2="900" stroke="#000000" stroke-width="2" stroke-linecap="round"></line><polygon points="592 900, 617 911, 610 900, 617 889, 592 900" stroke-linejoin="round" fill="#000000" stroke="#000000" stroke-width="1"></polygon></g></g><g id="5b57d078-aeaa-4e76-866d-5657951a5e55-4cbb1100-2cad-432e-9986-26eb4e40106a"><g cursor="cell"><line x1="720" y1="585" x2="540" y2="585" stroke="red" stroke-width="8" opacity="0"></line><line x1="720" y1="585" x2="540" y2="585" stroke="#000000" stroke-width="2" stroke-linecap="round"></line></g></g><g id="13b4d6d9-4dd8-4baa-8589-0826c18bee56-5b57d078-aeaa-4e76-866d-5657951a5e55"><g cursor="cell"><line x1="765" y1="315" x2="765" y2="527" stroke="red" stroke-width="8" opacity="0"></line><line x1="765" y1="315" x2="765" y2="527" stroke="#000000" stroke-width="2" stroke-linecap="round"></line><polygon points="765 540, 776 516, 765 522, 754 516, 765 540" stroke-linejoin="round" fill="#000000" stroke="#000000" stroke-width="1"></polygon></g></g></g><g pointer-events="auto"><g opacity="1"><g id="688e4bab-e850-4866-b052-bb2bd37f773c" transform="translate(0 0)"><svg x="495" y="270" height="90" width="90"><path class="cls-1" d="M0 0h90v90H0z" fill="#3b48cc" data-name="Blue Light BG"></path><path class="cls-2" d="M58.14 33.876c0-3.48-6.828-5.088-13.2-5.088s-13.2 1.608-13.2 5.088a1.848 1.848 0 0 0 .06.516v21.66c-.06 3.6 6.78 5.136 13.2 5.136s13.2-1.584 13.2-5.064V33.876ZM44.964 31.2c6.996 0 10.8 1.908 10.8 2.688 0 .78-3.78 2.688-10.8 2.688s-10.8-1.896-10.8-2.688c0-.792 3.804-2.688 10.8-2.688zm10.8 24.936c0 .768-3.792 2.664-10.8 2.664s-10.8-1.896-10.8-2.664v-3.792c2.532 1.38 6.78 2.04 10.8 2.04 4.02 0 8.232-.648 10.8-2.004zm0-6.828c0 .768-3.78 2.688-10.8 2.688s-10.8-1.92-10.8-2.688v-4.584c2.532 1.368 6.78 2.028 10.8 2.028 4.02 0 8.232-.648 10.8-2.004zm0-7.644c0 .78-3.78 2.7-10.8 2.7s-10.8-1.92-10.8-2.7v-4.68c2.556 1.356 6.756 1.98 10.8 1.98s8.292-.648 10.8-2.028zM19.092 72.612H27v2.4H16.2a1.2 1.2 0 0 1-1.2-1.2v-10.8h2.4v7.884l9-8.988 1.68 1.692ZM75 63.012v10.8a1.2 1.2 0 0 1-1.2 1.2H63v-2.4h7.908L62.04 63.72l1.692-1.68 8.868 8.856v-7.884zm0-46.8v10.8h-2.4v-7.92l-8.868 8.868-1.692-1.692 8.856-8.856H63v-2.4h10.8a1.2 1.2 0 0 1 1.2 1.2zM28.08 26.4l-1.68 1.68-9-8.988v7.896H15v-10.8a1.2 1.2 0 0 1 1.2-1.2H27v2.4h-7.908zm-1.488 29.352C19.26 53.112 15.06 49.08 15.06 44.7s4.2-8.4 11.532-11.052l.816 2.256c-6.228 2.244-9.948 5.532-9.948 8.796 0 3.264 3.72 6.552 9.948 8.796zm36.144.264-.768-2.28C68.628 51.492 72.6 48.108 72.6 44.7s-3.972-6.792-10.632-9.048l.768-2.268C70.524 36 75 40.152 75 44.7s-4.476 8.676-12.264 11.316z" fill="#ffffff" data-name="Product Icon-2"></path></svg></g></g><g opacity="1"><g id="afe70dfe-e043-49c7-9950-1abba98b8c60" transform="translate(0 0)"><svg x="270" y="540" height="90" width="90"><path d="M0 0h90v90H0z" fill="#3f8624" data-name="Green Light BG"></path><path d="M73.716 48.072c-.348-1.884-2.484-3.216-3.948-4.164-.468-.3-1.752-.78-1.86-1.2a2.832 2.832 0 0 1 .12-.888l1.2-8.628c.348-2.532.684-5.064 1.032-7.596.312-2.328-.804-3.888-2.7-5.196-3.864-2.676-8.904-3.756-13.452-4.5a67.02 67.02 0 0 0-17.256-.564 48 48 0 0 0-15.036 3.6c-2.568 1.2-5.928 3.072-5.508 6.348 1.2 9.744 2.616 19.464 3.924 29.196l1.8 13.356a4.956 4.956 0 0 0 2.952 3.996c3.72 2.016 8.328 2.592 12.48 2.976A61.8 61.8 0 0 0 54 74.076c3.456-.636 9.888-1.68 10.44-6 .684-5.352 1.44-10.704 2.16-16.044l.264-1.632c1.956.468 7.536 1.464 6.852-2.328zM43.26 17.4c7.2 0 15.444.816 21.9 4.368.996.552 3.312 1.788 2.616 3.252-.696 1.464-2.856 2.196-4.176 2.724a37.056 37.056 0 0 1-5.796 1.62 74.748 74.748 0 0 1-25.992.54 32.16 32.16 0 0 1-11.184-3.276c-.864-.492-2.292-1.38-1.896-2.556a3.6 3.6 0 0 1 1.416-1.512 25.008 25.008 0 0 1 8.64-3.492A60.42 60.42 0 0 1 43.26 17.4zm18.816 50.58c-.18 1.404-2.496 2.1-3.6 2.496a35.52 35.52 0 0 1-7.056 1.584 60.864 60.864 0 0 1-16.044 0 26.688 26.688 0 0 1-9.6-2.604 2.4 2.4 0 0 1-1.44-2.076c-1.2-9.516-2.568-19.032-3.852-28.548l-1.392-10.32a27.912 27.912 0 0 0 8.76 3.072 71.544 71.544 0 0 0 9.972 1.308A77.76 77.76 0 0 0 57.492 31.8a29.124 29.124 0 0 0 9.852-3.288L64.8 47.352a144.516 144.516 0 0 1-17.784-7.2 5.124 5.124 0 0 1-.732-.348c-.324-.24-.24-.12-.396-.492-.3-.684-.372-1.2-1.008-1.764a2.7 2.7 0 1 0-1.488 4.8 4.944 4.944 0 0 0 1.2-.36c.468-.144.468-.12.96.108a152.064 152.064 0 0 0 18 7.392c.924.3.912 0 .912.768a13.788 13.788 0 0 1-.228 1.74l-.768 5.724ZM43.56 39.6c0 .324-.456.288-.576.084-.12-.204.576-.54.576-.084ZM67.2 48l.36-2.652c1.2.684 3.24 1.716 3.78 3.084-1.176.48-3.036-.156-4.14-.432Z" fill="#ffffff" data-name="Product Icon"></path></svg></g></g><g opacity="1"><g id="6c6f6ef3-4ceb-4aa1-b55e-038974c8e354" transform="translate(0 0)"><svg x="495" y="1035" height="90" width="90"><defs></defs><g transform="translate(-2.872 -2.852) scale(1.9149)"><circle cx="25.03" cy="13.644" fill="#232f3e" opacity=".05" r="10.787" stroke-width=".522"></circle><path class="cls-1" d="M47.5 48.44h-45a1 1 0 0 1-1-1v-3a22.73 22.73 0 0 1 17.36-22.1 1.06 1.06 0 0 1 .72.09 11.29 11.29 0 0 0 10.82 0 1 1 0 0 1 .71-.09A22.73 22.73 0 0 1 48.5 44.45v3a1 1 0 0 1-1 .99z" fill="#232f3e" opacity=".05"></path><path class="cls-1" d="M47.5 48.44h-45a1 1 0 0 1-1-1v-3a22.73 22.73 0 0 1 17.36-22.1 1.06 1.06 0 0 1 .72.09 11.29 11.29 0 0 0 10.82 0 1 1 0 0 1 .71-.09A22.73 22.73 0 0 1 48.5 44.45v3a1 1 0 0 1-1 .99zm-44-2h43v-2A20.71 20.71 0 0 0 31 24.39a13.51 13.51 0 0 1-6 1.43 13.21 13.21 0 0 1-6-1.43A20.72 20.72 0 0 0 3.5 44.45Z" fill="#232f3e"></path><path class="cls-1" d="M25 25.75a12.18 12.18 0 0 1-5.9-1.5 12.13 12.13 0 1 1 18.06-10.58 12 12 0 0 1-6.32 10.58 12.38 12.38 0 0 1-5.84 1.5Zm0-22.19a10.08 10.08 0 0 0-5 18.94 10.33 10.33 0 0 0 9.85 0A10.08 10.08 0 0 0 25 3.56Z" fill="#232f3e"></path></g></svg></g></g></g><g pointer-events="auto"></g><g pointer-events="auto"><g opacity="1"><g id="d655ee36-61c6-47b3-b615-94aa9747f573" transform="translate(0 0)"><svg x="540" y="900" overflow="visible"><g transform="scale(1.4131949617798671) "><circle cx="0" cy="0" fill="transparent" r="44"></circle><svg width="74" height="74" x="-37" y="-37" style="fill: rgb(255, 255, 255);"><svg width="74" height="74" viewBox="0 0 74 74" xmlns="http://www.w3.org/2000/svg"><defs><linearGradient x1="0%" y1="100%" x2="100%" y2="0%" id="Front-End-Web-Mobile_svg__a"><stop stop-color="#BD0816" offset="0%"></stop><stop stop-color="#FF5252" offset="100%"></stop></linearGradient></defs><g fill="none" fill-rule="evenodd"><path fill="url(#Front-End-Web-Mobile_svg__a)" d="M5 5h64v64H5z"></path><path stroke="#879196" stroke-width="2" d="M1 1h72v72H1z"></path><g fill="#FFF"><path d="M46 55h6v-2h-6v2Zm-5 2h16.001v-6H41v6Zm0-29v21h16.001L57 28H41Zm18 0v29c0 1.103-.897 2-2 2H41c-1.103 0-2-.897-2-2V28c0-1.103.897-2 2-2h16c1.103 0 2 .897 2 2Zm-37-6h17v2h2v-3a1 1 0 0 0-1-1H21a1 1 0 0 0-1 1v29a1 1 0 0 0 1 1h16v-2H22V22Zm-3.852 32H37v2H18.148C16.412 56 15 54.557 15 52.782V18.218C15 16.443 16.412 15 18.148 15h24.704C44.588 15 46 16.443 46 18.218V24h-2v-5.782c0-.672-.516-1.218-1.148-1.218H18.148c-.632 0-1.148.546-1.148 1.218v34.564c0 .672.516 1.218 1.148 1.218Z"></path></g></g></svg></svg></g></svg></g></g><g opacity="1"><g id="1297478a-a060-4a00-9d29-267b5dca9bb8" transform="translate(0 0)"><svg x="180" y="180" overflow="visible"><g transform="scale(1.3975424859373686) "><circle cx="0" cy="0" fill="transparent" r="40"></circle><svg width="100" height="100" x="-50" y="-50" style="fill: rgb(255, 255, 255);"><svg data-name="Layer 1" xmlns="http://www.w3.org/2000/svg" width="100" height="100" viewBox="0 0 100 100"><path d="M85.23 58v3.19C85.23 67 78.85 73 71 73H29c-7.85 0-14.23-6-14.23-11.81V58Z" fill="#9d5125"></path><path d="M41.89 26.9a18 18 0 0 1 16.42 10.56 9.14 9.14 0 0 1 14.29 7.18c7.1.59 12.63 7.44 12.63 12.88v1.18c0 5.85-6.38 11.78-14.26 11.78H29c-7.86 0-14.24-5.93-14.24-11.78v-1.17c0-4.51 3.79-10.71 9.12-12.25v-.51A17.94 17.94 0 0 1 41.89 26.9Z" fill="#f58535"></path><path d="m32.42 47.81-4.71 16.45h2.76l1.06-4h4.85l1 4h2.76l-4.33-16.45ZM32 58.13 34 50l1.9 8.11ZM51.99 60.66h-.04l-2.23-12.85h-2.78l-2.18 12.78h-.05l-2.17-12.78h-2.67l3.19 16.45h3.07l2.11-12.39h.05l2.13 12.39h3.06l3.29-16.45h-2.62l-2.16 12.85zM65.28 55.28l-1.79-.65C61.74 54 61 53.25 61 51.84a2.11 2.11 0 0 1 2.22-2.37 2.07 2.07 0 0 1 2.32 2.38v.35h2.65v-.37c0-1.7-.44-4.33-4.68-4.33-3.11 0-5.15 1.66-5.15 4.66 0 2.35 1 3.59 3.45 4.51l1.81.63A2.76 2.76 0 0 1 66 60.2a2.34 2.34 0 0 1-2.51 2.4c-1.83 0-2.71-1-2.71-3v-.42h-2.64v.39c0 2.3.93 5 5 5 3.34 0 5.48-1.45 5.48-4.95.03-2.25-1-3.52-3.34-4.34Z" fill="#fff"></path></svg></svg></g></svg></g></g><g opacity="1"><g id="5b57d078-aeaa-4e76-866d-5657951a5e55" transform="translate(0 0)"><svg x="765" y="585" overflow="visible"><g transform="scale(1.4131949617798671) "><circle cx="0" cy="0" fill="transparent" r="39"></circle><svg width="64" height="64" x="-32" y="-32" style="fill: rgb(255, 255, 255);"><svg width="64" height="64" viewBox="0 0 64 64" xmlns="http://www.w3.org/2000/svg"><defs><linearGradient x1="0%" y1="100%" x2="100%" y2="0%" id="Elastic-Beanstalk_svg__a"><stop stop-color="#C8511B" offset="0%"></stop><stop stop-color="#F90" offset="100%"></stop></linearGradient></defs><g fill="none" fill-rule="evenodd"><g fill="url(#Elastic-Beanstalk_svg__a)"><path d="M0 0h64v64H0z"></path></g><path d="M38.992 38.005a2 2 0 0 0-1.998-1.999 2 2 0 0 0 0 3.998 2 2 0 0 0 1.998-1.999m-7.99-8.996a2 2 0 0 0 0-3.998 2 2 0 0 0 0 3.998m-6.992 8.996a2 2 0 0 0 0-3.998 2 2 0 0 0 0 3.998m16.98 0c0 1.858-1.278 3.41-2.997 3.857v4.14c0 .552-.447 1-.999 1H32V51h-1.998v-7.997H24.01a.999.999 0 0 1-1-1v-2.14c-1.718-.447-2.996-2-2.996-3.857a4 4 0 0 1 3.996-3.998 4 4 0 0 1 3.995 3.998c0 1.857-1.278 3.41-2.997 3.857v1.141h4.994V30.866c-1.719-.447-2.996-1.999-2.996-3.856A4 4 0 0 1 31 23.01a4 4 0 0 1 3.995 3.999c0 1.857-1.277 3.41-2.996 3.856v14.136h3.995v-3.14c-1.719-.447-2.996-2-2.996-3.857a4 4 0 0 1 3.995-3.998 4 4 0 0 1 3.995 3.998M53 32.998c0 5.903-4.39 8.006-8.499 8.006v-2c1.955 0 6.501-.584 6.501-6.006 0-3.255-1.916-5.29-5.698-6.051a.996.996 0 0 1-.799-.92c-.187-3.142-1.992-4.256-3.48-4.256-1.002 0-1.942.48-2.58 1.316a.997.997 0 0 1-1.73-.262c-.604-1.636-1.467-3.005-2.568-4.07-1.357-1.318-5.08-4.146-10.335-1.988-3.024 1.231-5.39 4.792-5.39 8.108 0 .365.023.733.068 1.094a1 1 0 0 1-.751 1.094c-1.77.439-4.741 1.786-4.741 5.877 0 .148.007.29.013.423.178 3.173 2.973 5.642 6.363 5.642h.64v2h-.64c-4.45 0-8.12-3.299-8.356-7.508A9.972 9.972 0 0 1 11 32.94c0-4.938 3.336-6.857 5.436-7.576a11.448 11.448 0 0 1-.011-.49c0-4.137 2.851-8.418 6.632-9.958 4.4-1.806 9.069-.909 12.48 2.402.99.957 1.814 2.11 2.463 3.437a5.144 5.144 0 0 1 3.025-.983c2.387 0 4.894 1.671 5.4 5.38C50.673 26.239 53 29.002 53 32.999" fill="#FFF"></path></g></svg></svg></g></svg></g></g></g><g pointer-events="auto"><g opacity="1"><g id="638de1fa-9f4f-46a1-969a-8f4ab740b8ff" transform="translate(0 0)"><svg x="428" y="540" overflow="visible"><text stroke="#ffffff" stroke-width="4" font-family="Open Sans" y="25.099999999999998" font-size="15pt" fill="#000000" font-weight="bold" transform="" xml:space="preserve"><tspan x="8" dy="0">deploy frontend app</tspan></text><text font-family="Open Sans" y="25.099999999999998" font-size="15pt" fill="#000000" font-weight="bold" transform="" xml:space="preserve"><tspan x="8" dy="0">deploy frontend app</tspan></text></svg></g></g><g opacity="1"><g id="f0bb539f-4acf-4841-ad6a-06ef7533adde" transform="translate(0 0)"><svg x="360" y="473" overflow="visible"><text stroke="#ffffff" stroke-width="4" font-family="Open Sans" y="25.099999999999998" font-size="15pt" fill="#f5b720" font-weight="bold" transform="" xml:space="preserve"><tspan x="8" dy="0">AWS</tspan></text><text font-family="Open Sans" y="25.099999999999998" font-size="15pt" fill="#f5b720" font-weight="bold" transform="" xml:space="preserve"><tspan x="8" dy="0">AWS</tspan></text></svg></g></g><g opacity="1"><g id="b738a405-1bd3-4fa9-9f14-6beaf4ff6b70" transform="translate(0 0)"><svg x="585" y="248" overflow="visible"><text stroke="#ffffff" stroke-width="4" font-family="Open Sans" y="30.799999999999997" font-size="20pt" fill="#f5b720" font-weight="bold" transform="" xml:space="preserve"><tspan x="8" dy="0">POSTGRES</tspan></text><text font-family="Open Sans" y="30.799999999999997" font-size="20pt" fill="#f5b720" font-weight="bold" transform="" xml:space="preserve"><tspan x="8" dy="0">POSTGRES</tspan></text></svg></g></g><g opacity="1"><g id="a7ce51fb-57ce-4fa2-85ac-d5635fb9e3f9" transform="translate(0 0)"><svg x="810" y="518" overflow="visible"><text stroke="#ffffff" stroke-width="4" font-family="Open Sans" y="36.5" font-size="25pt" fill="#ffc107" font-weight="bold" transform="" xml:space="preserve"><tspan x="8" dy="0">EB</tspan><tspan x="8" dy="1.1em"> </tspan></text><text font-family="Open Sans" y="36.5" font-size="25pt" fill="#ffc107" font-weight="bold" transform="" xml:space="preserve"><tspan x="8" dy="0">EB</tspan><tspan x="8" dy="1.1em"> </tspan></text></svg></g></g><g opacity="1"><g id="ab4d7dec-112f-4ce0-a4ae-ad701828d9df" transform="translate(0 0)"><svg x="698" y="765" overflow="visible"><text stroke="#ffffff" stroke-width="4" font-family="Open Sans" y="25.099999999999998" font-size="15pt" fill="#000000" font-weight="bold" transform="" xml:space="preserve"><tspan x="8" dy="0">API server excute</tspan><tspan x="8" dy="1.1em"> request and response</tspan></text><text font-family="Open Sans" y="25.099999999999998" font-size="15pt" fill="#000000" font-weight="bold" transform="" xml:space="preserve"><tspan x="8" dy="0">API server excute</tspan><tspan x="8" dy="1.1em"> request and response</tspan></text></svg></g></g><g opacity="1"><g id="1d13311f-570d-405f-832d-72ee46704801" transform="translate(0 0)"><svg x="810" y="495" overflow="visible"><text stroke="#ffffff" stroke-width="4" font-family="Open Sans" y="25.099999999999998" font-size="15pt" fill="#ffc107" font-weight="bold" transform="" xml:space="preserve"><tspan x="8" dy="0">AWS</tspan></text><text font-family="Open Sans" y="25.099999999999998" font-size="15pt" fill="#ffc107" font-weight="bold" transform="" xml:space="preserve"><tspan x="8" dy="0">AWS</tspan></text></svg></g></g><g opacity="1"><g id="8aa6e2bb-9a68-47f4-8c16-443fb4d649b5" transform="translate(0 0)"><svg x="360" y="495" overflow="visible"><text stroke="#ffffff" stroke-width="4" font-family="Open Sans" y="36.5" font-size="25pt" fill="#f5b720" font-weight="bold" transform="" xml:space="preserve"><tspan x="8" dy="0">S3</tspan></text><text font-family="Open Sans" y="36.5" font-size="25pt" fill="#f5b720" font-weight="bold" transform="" xml:space="preserve"><tspan x="8" dy="0">S3</tspan></text></svg></g></g><g opacity="1"><g id="ae5a6e5f-9e7c-49fa-a462-ddaf7cd91631" transform="translate(0 0)"><svg x="585" y="203" overflow="visible"><text stroke="#ffffff" stroke-width="4" font-family="Open Sans" y="36.5" font-size="25pt" fill="#f5b720" font-weight="bold" transform="" xml:space="preserve"><tspan x="8" dy="0">RDS</tspan></text><text font-family="Open Sans" y="36.5" font-size="25pt" fill="#f5b720" font-weight="bold" transform="" xml:space="preserve"><tspan x="8" dy="0">RDS</tspan></text></svg></g></g><g opacity="1"><g id="eed140f6-75f0-4e2e-badd-a262e0b7b388" transform="translate(0 0)"><svg x="698" y="383" overflow="visible"><text stroke="#ffffff" stroke-width="4" font-family="Open Sans" y="25.099999999999998" font-size="15pt" fill="#000000" font-weight="bold" transform="" xml:space="preserve"><tspan x="8" dy="0">CRUD data </tspan></text><text font-family="Open Sans" y="25.099999999999998" font-size="15pt" fill="#000000" font-weight="bold" transform="" xml:space="preserve"><tspan x="8" dy="0">CRUD data </tspan></text></svg></g></g><g opacity="1"><g id="d45ba31d-259d-4e3a-8e65-5e1e15c86d03" transform="translate(0 0)"><svg x="315" y="743" overflow="visible"><text stroke="#ffffff" stroke-width="4" font-family="Open Sans" y="25.099999999999998" font-size="15pt" fill="#000000" font-weight="bold" transform="" xml:space="preserve"><tspan x="8" dy="0">request/get frontend app</tspan></text><text font-family="Open Sans" y="25.099999999999998" font-size="15pt" fill="#000000" font-weight="bold" transform="" xml:space="preserve"><tspan x="8" dy="0">request/get frontend app</tspan></text></svg></g></g><g opacity="1"><g id="2f66d5a7-941c-4906-b62e-d04388714df7" transform="translate(0 0)"><svg x="540" y="810" overflow="visible"><text stroke="#ffffff" stroke-width="4" font-family="Open Sans" y="25.099999999999998" font-size="15pt" fill="#000000" font-weight="bold" transform="" xml:space="preserve"><tspan x="8" dy="0">Frontend App</tspan></text><text font-family="Open Sans" y="25.099999999999998" font-size="15pt" fill="#000000" font-weight="bold" transform="" xml:space="preserve"><tspan x="8" dy="0">Frontend App</tspan></text></svg></g></g><g opacity="1"><g id="522efff2-130f-46f9-9dbb-7f281992a149" transform="translate(0 0)"><svg x="563" y="1013" overflow="visible"><text stroke="#ffffff" stroke-width="4" font-family="Open Sans" y="25.099999999999998" font-size="15pt" fill="#000000" font-weight="bold" transform="" xml:space="preserve"><tspan x="8" dy="0">Users</tspan></text><text font-family="Open Sans" y="25.099999999999998" font-size="15pt" fill="#000000" font-weight="bold" transform="" xml:space="preserve"><tspan x="8" dy="0">Users</tspan></text></svg></g></g><g opacity="1"><g id="d67cac59-1f17-4202-8f43-03f639a29970" transform="translate(0 0)"><svg x="585" y="180" overflow="visible"><text stroke="#ffffff" stroke-width="4" font-family="Open Sans" y="25.099999999999998" font-size="15pt" fill="#f5b720" font-weight="bold" transform="" xml:space="preserve"><tspan x="8" dy="0">AWS</tspan></text><text font-family="Open Sans" y="25.099999999999998" font-size="15pt" fill="#f5b720" font-weight="bold" transform="" xml:space="preserve"><tspan x="8" dy="0">AWS</tspan></text></svg></g></g></g><g pointer-events="auto"><g></g><g></g><g></g><g></g><g></g><g></g><g></g><g></g><g></g><g></g></g></g></svg>