<?xml version="1.0" standalone="no"?>
<!DOCTYPE svg PUBLIC "-//W3C//DTD SVG 1.1//EN"
  "http://www.w3.org/Graphics/SVG/1.1/DTD/svg11.dtd">
<svg version="1.1" xmlns="http://www.w3.org/2000/svg" xmlns:xlink="http://www.w3.org/1999/xlink" width="1144" height="1414" viewBox="-32 -32 1144 1414" id="ccdiagram"><filter id="grayscale"><feColorMatrix type="matrix" values="0.3333 0.3333 0.3333 0 0 0.3333 0.3333 0.3333 0 0 0.3333 0.3333 0.3333 0 0 0 0 0 1 0"></feColorMatrix></filter><defs><style type="text/css">@import url('https://fonts.googleapis.com/css?family=Open+Sans:400,700|Inconsolata:400');</style></defs><g><rect x="-32" y="-32" width="1144" height="1414" fill="#ffffff" id="interactionLayer"></rect><g pointer-events="auto"><g opacity="1"><g><g><polygon points="608 945, 990 945, 1035 990, 1035 1260, 990 1305, 608 1305, 563 1260, 563 990" fill="#ffffff" stroke-width="2" stroke="#e6e7e8"></polygon><polygon points="608 990, 990 990, 990 1260, 608 1260" fill="#e6e7e8"></polygon></g></g></g><g opacity="1"><g><g><polygon points="23 23, 428 23, 473 68, 473 1125, 428 1170, 23 1170, -22 1125, -22 68" fill="#ffffff" stroke-width="2" stroke="#e6e7e8"></polygon><polygon points="23 68, 428 68, 428 1125, 23 1125" fill="#e6e7e8"></polygon></g></g></g></g><g pointer-events="auto"></g><g pointer-events="auto"></g><g></g><g pointer-events="auto"></g><g></g><g pointer-events="auto"></g><g pointer-events="auto"></g><g pointer-events="none"></g><g pointer-events="auto"><g id="7ee2a946-2460-4fa6-806e-06be7f6dd2a5-938b69c5-dfe9-4926-bdf1-8a329b8053d0"><g cursor="cell"><line x1="937" y1="720" x2="734" y2="720" stroke="red" stroke-width="8" opacity="0"></line><line x1="937" y1="720" x2="734" y2="720" stroke="#000000" stroke-width="2" stroke-linecap="round"></line><polygon points="720 720, 744 731, 738 720, 744 709, 720 720" stroke-linejoin="round" fill="#000000" stroke="#000000" stroke-width="1"></polygon></g></g><g id="89a567df-a177-4bea-8810-1feacdb2fbbe-99929bb6-095d-4915-8d80-ad7a830d3422"><g cursor="cell"><line x1="645" y1="720" x2="464" y2="720" stroke="red" stroke-width="8" opacity="0"></line><line x1="645" y1="720" x2="464" y2="720" stroke="#000000" stroke-width="2" stroke-linecap="round"></line><polygon points="450 720, 474 731, 468 720, 474 709, 450 720" stroke-linejoin="round" fill="#000000" stroke="#000000" stroke-width="1"></polygon></g></g><g id="223b1780-45b0-4814-8758-86fe533e558b-2181d7c7-eb53-425f-9934-e2fff3945007"><g cursor="cell"><line x1="479" y1="1215" x2="225" y2="1215" stroke="red" stroke-width="8" opacity="0"></line><line x1="479" y1="1215" x2="225" y2="1215" stroke="#000000" stroke-width="2" stroke-linecap="round"></line><polygon points="493 1215, 468 1204, 475 1215, 468 1226, 493 1215" stroke-linejoin="round" fill="#000000" stroke="#000000" stroke-width="1"></polygon></g></g><g id="2181d7c7-eb53-425f-9934-e2fff3945007-9d9b65ec-c51b-4128-8abd-43e6232067ad"><g cursor="cell"><line x1="225" y1="1215" x2="225" y2="1215" stroke="red" stroke-width="8" opacity="0"></line><line x1="225" y1="1215" x2="225" y2="1215" stroke="#000000" stroke-width="2" stroke-linecap="round"></line></g></g><g id="9d9b65ec-c51b-4128-8abd-43e6232067ad-54f56e9a-96c3-4570-aad5-1c99d3b7c9af"><g cursor="cell"><line x1="225" y1="1215" x2="225" y2="1170" stroke="red" stroke-width="8" opacity="0"></line><line x1="225" y1="1215" x2="225" y2="1170" stroke="#000000" stroke-width="2" stroke-linecap="round"></line></g></g></g><g pointer-events="auto"><g opacity="1"><g id="be43cb38-c0f5-4201-b270-132e42424db4" transform="translate(0 0)"><svg x="675" y="1080" height="90" width="90"><path d="M0 0h90v90H0z" fill="#3f8624" data-name="Green Light BG"></path><path d="M73.716 48.072c-.348-1.884-2.484-3.216-3.948-4.164-.468-.3-1.752-.78-1.86-1.2a2.832 2.832 0 0 1 .12-.888l1.2-8.628c.348-2.532.684-5.064 1.032-7.596.312-2.328-.804-3.888-2.7-5.196-3.864-2.676-8.904-3.756-13.452-4.5a67.02 67.02 0 0 0-17.256-.564 48 48 0 0 0-15.036 3.6c-2.568 1.2-5.928 3.072-5.508 6.348 1.2 9.744 2.616 19.464 3.924 29.196l1.8 13.356a4.956 4.956 0 0 0 2.952 3.996c3.72 2.016 8.328 2.592 12.48 2.976A61.8 61.8 0 0 0 54 74.076c3.456-.636 9.888-1.68 10.44-6 .684-5.352 1.44-10.704 2.16-16.044l.264-1.632c1.956.468 7.536 1.464 6.852-2.328zM43.26 17.4c7.2 0 15.444.816 21.9 4.368.996.552 3.312 1.788 2.616 3.252-.696 1.464-2.856 2.196-4.176 2.724a37.056 37.056 0 0 1-5.796 1.62 74.748 74.748 0 0 1-25.992.54 32.16 32.16 0 0 1-11.184-3.276c-.864-.492-2.292-1.38-1.896-2.556a3.6 3.6 0 0 1 1.416-1.512 25.008 25.008 0 0 1 8.64-3.492A60.42 60.42 0 0 1 43.26 17.4zm18.816 50.58c-.18 1.404-2.496 2.1-3.6 2.496a35.52 35.52 0 0 1-7.056 1.584 60.864 60.864 0 0 1-16.044 0 26.688 26.688 0 0 1-9.6-2.604 2.4 2.4 0 0 1-1.44-2.076c-1.2-9.516-2.568-19.032-3.852-28.548l-1.392-10.32a27.912 27.912 0 0 0 8.76 3.072 71.544 71.544 0 0 0 9.972 1.308A77.76 77.76 0 0 0 57.492 31.8a29.124 29.124 0 0 0 9.852-3.288L64.8 47.352a144.516 144.516 0 0 1-17.784-7.2 5.124 5.124 0 0 1-.732-.348c-.324-.24-.24-.12-.396-.492-.3-.684-.372-1.2-1.008-1.764a2.7 2.7 0 1 0-1.488 4.8 4.944 4.944 0 0 0 1.2-.36c.468-.144.468-.12.96.108a152.064 152.064 0 0 0 18 7.392c.924.3.912 0 .912.768a13.788 13.788 0 0 1-.228 1.74l-.768 5.724ZM43.56 39.6c0 .324-.456.288-.576.084-.12-.204.576-.54.576-.084ZM67.2 48l.36-2.652c1.2.684 3.24 1.716 3.78 3.084-1.176.48-3.036-.156-4.14-.432Z" fill="#ffffff" data-name="Product Icon"></path></svg></g></g></g><g pointer-events="auto"></g><g pointer-events="auto"><g opacity="1"><g id="7ee2a946-2460-4fa6-806e-06be7f6dd2a5" transform="translate(0 0)"><svg x="990" y="720" overflow="visible"><g transform="scale(2.2081171277810427) "><circle cx="0" cy="0" fill="transparent" r="31"></circle><svg width="48" height="48" x="-24" y="-24" style="fill: rgb(255, 255, 255);"><svg width="48" height="48" viewBox="0 0 48 48" xmlns="http://www.w3.org/2000/svg"><g fill="none" fill-rule="evenodd"><path d="M28.639 9.286c0-2.915 2.413-5.286 5.38-5.286 2.966 0 5.378 2.371 5.378 5.286 0 2.915-2.412 5.286-5.378 5.286-2.967 0-5.38-2.371-5.38-5.286Zm11.524 7.048a11.71 11.71 0 0 0-2.035-1.001c1.97-1.31 3.269-3.531 3.269-6.047 0-4.017-3.31-7.286-7.378-7.286-4.069 0-7.38 3.269-7.38 7.286 0 2.51 1.293 4.728 3.256 6.039a11.896 11.896 0 0 0-3.546 2.1l1.303 1.518A9.766 9.766 0 0 1 34 16.572c1.802 0 3.569.505 5.109 1.461 2.74 1.702 4.538 4.692 4.844 7.967H34v2h11a1 1 0 0 0 1-1c0-4.343-2.236-8.43-5.837-10.666ZM8.639 9.286C8.639 6.371 11.052 4 14.019 4c2.966 0 5.378 2.371 5.378 5.286 0 2.915-2.412 5.286-5.378 5.286-2.967 0-5.38-2.371-5.38-5.286ZM14 26H4.046C4.53 20.717 8.81 16.572 14 16.572c1.802 0 3.569.505 5.109 1.461.432.269.849.575 1.24.91l1.303-1.517a11.71 11.71 0 0 0-3.524-2.093c1.97-1.31 3.269-3.531 3.269-6.047 0-4.017-3.31-7.286-7.378-7.286-4.069 0-7.38 3.269-7.38 7.286 0 2.515 1.298 4.737 3.268 6.046C5.302 17.071 2 21.638 2 27a1 1 0 0 0 1 1h11v-2Zm.046 18c.484-5.283 4.764-9.428 9.954-9.428 1.802 0 3.569.505 5.109 1.461 2.74 1.702 4.538 4.692 4.844 7.967H14.046Zm4.593-16.714c0-2.915 2.413-5.286 5.38-5.286 2.966 0 5.378 2.371 5.378 5.286 0 2.915-2.412 5.286-5.378 5.286-2.967 0-5.38-2.371-5.38-5.286Zm11.524 7.048a11.71 11.71 0 0 0-2.035-1.001c1.97-1.31 3.269-3.531 3.269-6.047 0-4.017-3.31-7.286-7.378-7.286-4.069 0-7.38 3.269-7.38 7.286 0 2.515 1.298 4.737 3.268 6.046C15.302 35.071 12 39.638 12 45a1 1 0 0 0 1 1h22a1 1 0 0 0 1-1c0-4.343-2.236-8.43-5.837-10.666Z" fill="#242F3E"></path></g></svg></svg></g></svg></g></g><g opacity="1"><g id="e4f5888d-60dd-4d6e-b3a0-a31c4bafa4b3" transform="translate(0 0)"><svg x="900" y="1125" overflow="visible"><g transform="scale(1.4131949617798671) "><circle cx="0" cy="0" fill="transparent" r="39"></circle><svg width="64" height="64" x="-32" y="-32" style="fill: rgb(255, 255, 255);"><svg width="64" height="64" viewBox="0 0 64 64" xmlns="http://www.w3.org/2000/svg"><defs><linearGradient x1="0%" y1="100%" x2="100%" y2="0%" id="Elastic-Beanstalk_svg__a"><stop stop-color="#C8511B" offset="0%"></stop><stop stop-color="#F90" offset="100%"></stop></linearGradient></defs><g fill="none" fill-rule="evenodd"><g fill="url(#Elastic-Beanstalk_svg__a)"><path d="M0 0h64v64H0z"></path></g><path d="M38.992 38.005a2 2 0 0 0-1.998-1.999 2 2 0 0 0 0 3.998 2 2 0 0 0 1.998-1.999m-7.99-8.996a2 2 0 0 0 0-3.998 2 2 0 0 0 0 3.998m-6.992 8.996a2 2 0 0 0 0-3.998 2 2 0 0 0 0 3.998m16.98 0c0 1.858-1.278 3.41-2.997 3.857v4.14c0 .552-.447 1-.999 1H32V51h-1.998v-7.997H24.01a.999.999 0 0 1-1-1v-2.14c-1.718-.447-2.996-2-2.996-3.857a4 4 0 0 1 3.996-3.998 4 4 0 0 1 3.995 3.998c0 1.857-1.278 3.41-2.997 3.857v1.141h4.994V30.866c-1.719-.447-2.996-1.999-2.996-3.856A4 4 0 0 1 31 23.01a4 4 0 0 1 3.995 3.999c0 1.857-1.277 3.41-2.996 3.856v14.136h3.995v-3.14c-1.719-.447-2.996-2-2.996-3.857a4 4 0 0 1 3.995-3.998 4 4 0 0 1 3.995 3.998M53 32.998c0 5.903-4.39 8.006-8.499 8.006v-2c1.955 0 6.501-.584 6.501-6.006 0-3.255-1.916-5.29-5.698-6.051a.996.996 0 0 1-.799-.92c-.187-3.142-1.992-4.256-3.48-4.256-1.002 0-1.942.48-2.58 1.316a.997.997 0 0 1-1.73-.262c-.604-1.636-1.467-3.005-2.568-4.07-1.357-1.318-5.08-4.146-10.335-1.988-3.024 1.231-5.39 4.792-5.39 8.108 0 .365.023.733.068 1.094a1 1 0 0 1-.751 1.094c-1.77.439-4.741 1.786-4.741 5.877 0 .148.007.29.013.423.178 3.173 2.973 5.642 6.363 5.642h.64v2h-.64c-4.45 0-8.12-3.299-8.356-7.508A9.972 9.972 0 0 1 11 32.94c0-4.938 3.336-6.857 5.436-7.576a11.448 11.448 0 0 1-.011-.49c0-4.137 2.851-8.418 6.632-9.958 4.4-1.806 9.069-.909 12.48 2.402.99.957 1.814 2.11 2.463 3.437a5.144 5.144 0 0 1 3.025-.983c2.387 0 4.894 1.671 5.4 5.38C50.673 26.239 53 29.002 53 32.999" fill="#FFF"></path></g></svg></svg></g></svg></g></g><g opacity="1"><g id="770adb20-0f12-4532-9fdf-72541d761100" transform="translate(0 0)"><svg x="428" y="113" overflow="visible"><g transform="scale(2.729575167846423) "><circle cx="0" cy="0" fill="#000000" r="24"></circle><svg width="34" height="32" x="-17" y="-16" style="fill: rgb(255, 255, 255);"><svg xmlns="http://www.w3.org/2000/svg" width="34" height="32" viewBox="0 0 34 32"><path d="M16 16c0-2.518-2.054-4.571-4.571-4.571S6.858 13.483 6.858 16s2.054 4.571 4.571 4.571S16 18.517 16 16zm13.714 9.143c0-1.25-1.036-2.286-2.286-2.286s-2.286 1.036-2.286 2.286a2.29 2.29 0 0 0 2.286 2.286 2.29 2.29 0 0 0 2.286-2.286zm0-18.286c0-1.25-1.036-2.286-2.286-2.286s-2.286 1.036-2.286 2.286a2.29 2.29 0 0 0 2.286 2.286 2.29 2.29 0 0 0 2.286-2.286zm-6.857 7.518v3.304c0 .232-.179.5-.411.536l-2.768.429a8.133 8.133 0 0 1-.571 1.357c.5.714 1.036 1.375 1.607 2.054a.619.619 0 0 1 .125.357c0 .125-.036.25-.125.339-.357.482-2.357 2.661-2.875 2.661a.676.676 0 0 1-.375-.125L15.41 23.68a7.648 7.648 0 0 1-1.375.554c-.089.911-.179 1.893-.411 2.768a.57.57 0 0 1-.536.429H9.767c-.25 0-.5-.196-.536-.446l-.411-2.732a8.732 8.732 0 0 1-1.339-.554l-2.107 1.589a.515.515 0 0 1-.357.125.577.577 0 0 1-.375-.143c-.464-.429-2.571-2.339-2.571-2.857a.61.61 0 0 1 .125-.339c.518-.679 1.054-1.339 1.571-2.036a9.515 9.515 0 0 1-.625-1.464l-2.714-.429a.52.52 0 0 1-.429-.518v-3.304c0-.232.179-.5.411-.536l2.768-.429c.143-.464.339-.911.571-1.357a29.272 29.272 0 0 0-1.607-2.054c-.071-.107-.125-.232-.125-.357s.036-.25.125-.357c.357-.482 2.357-2.643 2.875-2.643.143 0 .268.054.375.125l2.054 1.607a9.216 9.216 0 0 1 1.375-.571c.089-.893.179-1.875.411-2.75a.57.57 0 0 1 .536-.429h3.321c.25 0 .5.196.536.446l.411 2.732c.464.143.911.339 1.339.554l2.107-1.589a.547.547 0 0 1 .357-.125c.143 0 .268.054.375.143.464.429 2.571 2.357 2.571 2.857a.61.61 0 0 1-.125.339c-.518.696-1.054 1.339-1.554 2.036.232.482.446.964.607 1.464l2.714.411c.25.054.429.286.429.536zm11.429 9.518v2.5c0 .268-2.304.518-2.661.554a4.332 4.332 0 0 1-.536.929c.161.357.911 2.143.911 2.464 0 .054-.018.089-.071.125-.214.125-2.125 1.268-2.214 1.268-.232 0-1.571-1.786-1.75-2.054-.179.018-.357.036-.536.036s-.357-.018-.536-.036c-.179.268-1.518 2.054-1.75 2.054-.089 0-2-1.143-2.214-1.268a.153.153 0 0 1-.071-.125c0-.304.75-2.107.911-2.464a4.35 4.35 0 0 1-.536-.929c-.357-.036-2.661-.286-2.661-.554v-2.5c0-.268 2.304-.518 2.661-.554.143-.321.321-.643.536-.929-.161-.357-.911-2.161-.911-2.464 0-.036.018-.089.071-.125.214-.107 2.125-1.25 2.214-1.25.232 0 1.571 1.768 1.75 2.036.179-.018.357-.036.536-.036s.357.018.536.036c.5-.696 1.036-1.393 1.643-2l.107-.036c.089 0 2 1.125 2.214 1.25a.153.153 0 0 1 .071.125c0 .321-.75 2.107-.911 2.464.214.286.393.607.536.929.357.036 2.661.286 2.661.554zm0-18.286v2.5c0 .268-2.304.518-2.661.554a4.332 4.332 0 0 1-.536.929c.161.357.911 2.143.911 2.464 0 .054-.018.089-.071.125-.214.125-2.125 1.268-2.214 1.268-.232 0-1.571-1.786-1.75-2.054-.179.018-.357.036-.536.036s-.357-.018-.536-.036c-.179.268-1.518 2.054-1.75 2.054-.089 0-2-1.143-2.214-1.268a.153.153 0 0 1-.071-.125c0-.304.75-2.107.911-2.464a4.35 4.35 0 0 1-.536-.929c-.357-.036-2.661-.286-2.661-.554v-2.5c0-.268 2.304-.518 2.661-.554.143-.321.321-.643.536-.929-.161-.357-.911-2.161-.911-2.464 0-.036.018-.089.071-.125.214-.107 2.125-1.25 2.214-1.25.232 0 1.571 1.768 1.75 2.036.179-.018.357-.036.536-.036s.357.018.536.036c.5-.696 1.036-1.393 1.643-2l.107-.036c.089 0 2 1.125 2.214 1.25A.153.153 0 0 1 32 1.66c0 .321-.75 2.107-.911 2.464.214.286.393.607.536.929.357.036 2.661.286 2.661.554z"></path></svg></svg></g></svg></g></g><g opacity="1"><g id="89a567df-a177-4bea-8810-1feacdb2fbbe" transform="translate(0 0)"><svg x="675" y="720" overflow="visible"><g transform="scale(2.1836601342771385) "><circle cx="0" cy="0" fill="#000000" r="23"></circle><svg width="27" height="32" x="-13.5" y="-16" style="fill: rgb(255, 255, 255);"><svg xmlns="http://www.w3.org/2000/svg" width="27" height="32" viewBox="0 0 27 32"><path d="M13.714 2.286c7.571 0 13.714 6.143 13.714 13.714 0 6.054-3.929 11.196-9.375 13.018-.696.125-.946-.304-.946-.661 0-.446.018-1.929.018-3.768 0-1.286-.429-2.107-.929-2.536 3.054-.339 6.268-1.5 6.268-6.768 0-1.5-.536-2.714-1.411-3.679.143-.357.607-1.75-.143-3.643-1.143-.357-3.768 1.411-3.768 1.411a12.895 12.895 0 0 0-6.858 0S7.659 7.606 6.516 7.963c-.75 1.893-.286 3.286-.143 3.643-.875.964-1.411 2.179-1.411 3.679 0 5.25 3.196 6.429 6.25 6.768-.393.357-.75.964-.875 1.839-.786.357-2.786.964-3.982-1.143-.75-1.304-2.107-1.411-2.107-1.411-1.339-.018-.089.839-.089.839.893.411 1.518 2 1.518 2 .804 2.446 4.625 1.625 4.625 1.625 0 1.143.018 2.214.018 2.554 0 .357-.25.786-.946.661-5.446-1.821-9.375-6.964-9.375-13.018 0-7.571 6.143-13.714 13.714-13.714zM5.196 21.982c.036-.071-.018-.161-.125-.214-.107-.036-.196-.018-.232.036-.036.071.018.161.125.214.089.054.196.036.232-.036zm.554.607c.071-.054.054-.179-.036-.286-.089-.089-.214-.125-.286-.054-.071.054-.054.179.036.286.089.089.214.125.286.054zm.536.804c.089-.071.089-.214 0-.339-.071-.125-.214-.179-.304-.107-.089.054-.089.196 0 .321s.232.179.304.125zm.75.75c.071-.071.036-.232-.071-.339-.125-.125-.286-.143-.357-.054-.089.071-.054.232.071.339.125.125.286.143.357.054zm1.018.446c.036-.107-.071-.232-.232-.286-.143-.036-.304.018-.339.125s.071.232.232.268c.143.054.304 0 .339-.107zm1.125.09c0-.125-.143-.214-.304-.196-.161 0-.286.089-.286.196 0 .125.125.214.304.196.161 0 .286-.089.286-.196zm1.035-.179c-.018-.107-.161-.179-.321-.161-.161.036-.268.143-.25.268.018.107.161.179.321.143s.268-.143.25-.25z"></path></svg></svg></g></svg></g></g><g opacity="1"><g id="223b1780-45b0-4814-8758-86fe533e558b" transform="translate(0 0)"><svg x="563" y="1215" overflow="visible"><g transform="scale(1.3975424859373686) "><circle cx="0" cy="0" fill="transparent" r="40"></circle><svg width="100" height="100" x="-50" y="-50" style="fill: rgb(255, 255, 255);"><svg data-name="Layer 1" xmlns="http://www.w3.org/2000/svg" width="100" height="100" viewBox="0 0 100 100"><path d="M85.23 58v3.19C85.23 67 78.85 73 71 73H29c-7.85 0-14.23-6-14.23-11.81V58Z" fill="#9d5125"></path><path d="M41.89 26.9a18 18 0 0 1 16.42 10.56 9.14 9.14 0 0 1 14.29 7.18c7.1.59 12.63 7.44 12.63 12.88v1.18c0 5.85-6.38 11.78-14.26 11.78H29c-7.86 0-14.24-5.93-14.24-11.78v-1.17c0-4.51 3.79-10.71 9.12-12.25v-.51A17.94 17.94 0 0 1 41.89 26.9Z" fill="#f58535"></path><path d="m32.42 47.81-4.71 16.45h2.76l1.06-4h4.85l1 4h2.76l-4.33-16.45ZM32 58.13 34 50l1.9 8.11ZM51.99 60.66h-.04l-2.23-12.85h-2.78l-2.18 12.78h-.05l-2.17-12.78h-2.67l3.19 16.45h3.07l2.11-12.39h.05l2.13 12.39h3.06l3.29-16.45h-2.62l-2.16 12.85zM65.28 55.28l-1.79-.65C61.74 54 61 53.25 61 51.84a2.11 2.11 0 0 1 2.22-2.37 2.07 2.07 0 0 1 2.32 2.38v.35h2.65v-.37c0-1.7-.44-4.33-4.68-4.33-3.11 0-5.15 1.66-5.15 4.66 0 2.35 1 3.59 3.45 4.51l1.81.63A2.76 2.76 0 0 1 66 60.2a2.34 2.34 0 0 1-2.51 2.4c-1.83 0-2.71-1-2.71-3v-.42h-2.64v.39c0 2.3.93 5 5 5 3.34 0 5.48-1.45 5.48-4.95.03-2.25-1-3.52-3.34-4.34Z" fill="#fff"></path></svg></svg></g></svg></g></g></g><g pointer-events="auto"><g opacity="1"><g id="eb8005a5-05cf-42a8-acda-83de0b2ca8c2" transform="translate(0 0)"><svg x="923" y="788" overflow="visible"><text stroke="#ffffff" stroke-width="4" font-family="Open Sans" y="30.799999999999997" font-size="20pt" fill="#000000" font-weight="bold" transform="" xml:space="preserve"><tspan x="8" dy="0">dev team</tspan></text><text font-family="Open Sans" y="30.799999999999997" font-size="20pt" fill="#000000" font-weight="bold" transform="" xml:space="preserve"><tspan x="8" dy="0">dev team</tspan></text></svg></g></g><g opacity="1"><g id="36fa3475-5c63-4775-a775-419bebc404e1" transform="translate(0 0)"><svg x="90" y="855" overflow="visible"><text stroke="#ffffff" stroke-width="4" font-family="Open Sans" y="30.799999999999997" font-size="20pt" fill="#000000" font-weight="bold" transform="" xml:space="preserve"><tspan x="8" dy="0">API Build</tspan></text><text font-family="Open Sans" y="30.799999999999997" font-size="20pt" fill="#000000" font-weight="bold" transform="" xml:space="preserve"><tspan x="8" dy="0">API Build</tspan></text></svg></g></g><g opacity="1"><g id="24b5dfbe-0636-4dc0-81f3-2799abf36a69" transform="translate(0 0)"><svg x="90" y="113" overflow="visible"><text stroke="#ffffff" stroke-width="4" font-family="Open Sans" y="30.799999999999997" font-size="20pt" fill="#000000" font-weight="bold" transform="" xml:space="preserve"><tspan x="8" dy="0">Install Front-End</tspan><tspan x="8" dy="1.1em"> Dependencies</tspan></text><text font-family="Open Sans" y="30.799999999999997" font-size="20pt" fill="#000000" font-weight="bold" transform="" xml:space="preserve"><tspan x="8" dy="0">Install Front-End</tspan><tspan x="8" dy="1.1em"> Dependencies</tspan></text></svg></g></g><g opacity="1"><g id="d88d2612-04f0-4b54-b2ec-40524d40c3cd" transform="translate(0 0)"><svg x="90" y="1013" overflow="visible"><text stroke="#ffffff" stroke-width="4" font-family="Open Sans" y="30.799999999999997" font-size="20pt" fill="#000000" font-weight="bold" transform="" xml:space="preserve"><tspan x="8" dy="0">Install, build, deploy </tspan><tspan x="8" dy="1.1em">in both apps</tspan></text><text font-family="Open Sans" y="30.799999999999997" font-size="20pt" fill="#000000" font-weight="bold" transform="" xml:space="preserve"><tspan x="8" dy="0">Install, build, deploy </tspan><tspan x="8" dy="1.1em">in both apps</tspan></text></svg></g></g><g opacity="1"><g id="43f83408-80e0-457a-a486-1200481697d7" transform="translate(0 0)"><svg x="698" y="1035" overflow="visible"><text stroke="#ffffff" stroke-width="4" font-family="Open Sans" y="30.799999999999997" font-size="20pt" fill="#000000" font-weight="bold" transform="" xml:space="preserve"><tspan x="8" dy="0">S3</tspan></text><text font-family="Open Sans" y="30.799999999999997" font-size="20pt" fill="#000000" font-weight="bold" transform="" xml:space="preserve"><tspan x="8" dy="0">S3</tspan></text></svg></g></g><g opacity="1"><g id="a2f6c812-88a3-4990-89b9-5a9e59361bb6" transform="translate(0 0)"><svg x="563" y="68" overflow="visible"><text stroke="#ffffff" stroke-width="4" font-family="Open Sans" y="30.799999999999997" font-size="20pt" fill="#000000" font-weight="bold" transform="" xml:space="preserve"><tspan x="8" dy="0">Pipeline process</tspan></text><text font-family="Open Sans" y="30.799999999999997" font-size="20pt" fill="#000000" font-weight="bold" transform="" xml:space="preserve"><tspan x="8" dy="0">Pipeline process</tspan></text></svg></g></g><g opacity="1"><g id="8e660ff5-6ccf-4638-8fe9-715683104f14" transform="translate(0 0)"><svg x="90" y="675" overflow="visible"><text stroke="#ffffff" stroke-width="4" font-family="Open Sans" y="30.799999999999997" font-size="20pt" fill="#000000" font-weight="bold" transform="" xml:space="preserve"><tspan x="8" dy="0">Front-End Build</tspan></text><text font-family="Open Sans" y="30.799999999999997" font-size="20pt" fill="#000000" font-weight="bold" transform="" xml:space="preserve"><tspan x="8" dy="0">Front-End Build</tspan></text></svg></g></g><g opacity="1"><g id="90f30162-c6de-4bc8-b6cf-c3bedf74da6c" transform="translate(0 0)"><svg x="90" y="495" overflow="visible"><text stroke="#ffffff" stroke-width="4" font-family="Open Sans" y="30.799999999999997" font-size="20pt" fill="#000000" font-weight="bold" transform="" xml:space="preserve"><tspan x="8" dy="0">Front-End Lint</tspan></text><text font-family="Open Sans" y="30.799999999999997" font-size="20pt" fill="#000000" font-weight="bold" transform="" xml:space="preserve"><tspan x="8" dy="0">Front-End Lint</tspan></text></svg></g></g><g opacity="1"><g id="85ef35d5-1395-4096-986b-259de5cf381a" transform="translate(0 0)"><svg x="765" y="675" overflow="visible"><text stroke="#ffffff" stroke-width="4" font-family="Open Sans" y="30.799999999999997" font-size="20pt" fill="#000000" font-weight="bold" transform="" xml:space="preserve"><tspan x="8" dy="0">git push</tspan><tspan x="8" dy="1.1em">to master</tspan></text><text font-family="Open Sans" y="30.799999999999997" font-size="20pt" fill="#000000" font-weight="bold" transform="" xml:space="preserve"><tspan x="8" dy="0">git push</tspan><tspan x="8" dy="1.1em">to master</tspan></text></svg></g></g><g opacity="1"><g id="d34b3052-503f-4b5f-ae1a-8f3f1a445f57" transform="translate(0 0)"><svg x="495" y="675" overflow="visible"><text stroke="#ffffff" stroke-width="4" font-family="Open Sans" y="30.799999999999997" font-size="20pt" fill="#000000" font-weight="bold" transform="" xml:space="preserve"><tspan x="8" dy="0">trigger</tspan></text><text font-family="Open Sans" y="30.799999999999997" font-size="20pt" fill="#000000" font-weight="bold" transform="" xml:space="preserve"><tspan x="8" dy="0">trigger</tspan></text></svg></g></g><g opacity="1"><g id="d7b9a0e3-df22-4014-84e9-64edaecb0e3d" transform="translate(0 0)"><svg x="90" y="293" overflow="visible"><text stroke="#ffffff" stroke-width="4" font-family="Open Sans" y="30.799999999999997" font-size="20pt" fill="#000000" font-weight="bold" transform="" xml:space="preserve"><tspan x="8" dy="0">Install API</tspan><tspan x="8" dy="1.1em">Dependencies</tspan></text><text font-family="Open Sans" y="30.799999999999997" font-size="20pt" fill="#000000" font-weight="bold" transform="" xml:space="preserve"><tspan x="8" dy="0">Install API</tspan><tspan x="8" dy="1.1em">Dependencies</tspan></text></svg></g></g><g opacity="1"><g id="7897e087-1fcf-488f-a446-8a23aa7712de" transform="translate(0 0)"><svg x="630" y="788" overflow="visible"><text stroke="#ffffff" stroke-width="4" font-family="Open Sans" y="30.799999999999997" font-size="20pt" fill="#000000" font-weight="bold" transform="" xml:space="preserve"><tspan x="8" dy="0">github</tspan><tspan x="8" dy="1.1em"> </tspan></text><text font-family="Open Sans" y="30.799999999999997" font-size="20pt" fill="#000000" font-weight="bold" transform="" xml:space="preserve"><tspan x="8" dy="0">github</tspan><tspan x="8" dy="1.1em"> </tspan></text></svg></g></g><g opacity="1"><g id="4968321b-da2f-47d2-9380-38d0463c441d" transform="translate(0 0)"><svg x="878" y="1035" overflow="visible"><text stroke="#ffffff" stroke-width="4" font-family="Open Sans" y="30.799999999999997" font-size="20pt" fill="#000000" font-weight="bold" transform="" xml:space="preserve"><tspan x="8" dy="0">EB</tspan></text><text font-family="Open Sans" y="30.799999999999997" font-size="20pt" fill="#000000" font-weight="bold" transform="" xml:space="preserve"><tspan x="8" dy="0">EB</tspan></text></svg></g></g></g><g pointer-events="auto"><g></g><g></g><g></g><g></g><g></g><g></g><g></g><g></g><g></g><g></g></g></g></svg>